<?xml version="1.0" encoding="UTF-8" standalone="no"?>
<!-- Created with Inkscape (http://www.inkscape.org/) -->

<svg
   xmlns:dc="http://purl.org/dc/elements/1.1/"
   xmlns:cc="http://creativecommons.org/ns#"
   xmlns:rdf="http://www.w3.org/1999/02/22-rdf-syntax-ns#"
   xmlns:svg="http://www.w3.org/2000/svg"
   xmlns="http://www.w3.org/2000/svg"
   xmlns:sodipodi="http://sodipodi.sourceforge.net/DTD/sodipodi-0.dtd"
   xmlns:inkscape="http://www.inkscape.org/namespaces/inkscape"
   width="210mm"
   height="297mm"
   viewBox="0 0 744.09448819 1052.3622047"
   id="svg2"
   version="1.1"
   inkscape:version="0.91 r13725"
   sodipodi:docname="mirrorOnly.svg"
   inkscape:export-filename="/home/nkiruka/Research/pictures/mirror_lightTransport2.png"
   inkscape:export-xdpi="90"
   inkscape:export-ydpi="90">
  <defs
     id="defs4">
    <marker
       inkscape:stockid="Arrow1Mstart"
       orient="auto"
       refY="0.0"
       refX="0.0"
       id="Arrow1Mstart"
       style="overflow:visible"
       inkscape:isstock="true">
      <path
         id="path4224"
         d="M 0.0,0.0 L 5.0,-5.0 L -12.5,0.0 L 5.0,5.0 L 0.0,0.0 z "
         style="fill-rule:evenodd;stroke:#1a0ed4;stroke-width:1pt;stroke-opacity:1;fill:#1a0ed4;fill-opacity:1"
         transform="scale(0.4) translate(10,0)" />
    </marker>
    <marker
       inkscape:isstock="true"
       style="overflow:visible"
       id="marker7739"
       refX="0.0"
       refY="0.0"
       orient="auto"
       inkscape:stockid="Arrow1Lstart">
      <path
         transform="scale(0.8) translate(12.5,0)"
         style="fill-rule:evenodd;stroke:#61cb00;stroke-width:1pt;stroke-opacity:1;fill:#61cb00;fill-opacity:1"
         d="M 0.0,0.0 L 5.0,-5.0 L -12.5,0.0 L 5.0,5.0 L 0.0,0.0 z "
         id="path7741" />
    </marker>
    <marker
       inkscape:stockid="Arrow1Lstart"
       orient="auto"
       refY="0.0"
       refX="0.0"
       id="marker4622"
       style="overflow:visible"
       inkscape:isstock="true"
       inkscape:collect="always">
      <path
         id="path4624"
         d="M 0.0,0.0 L 5.0,-5.0 L -12.5,0.0 L 5.0,5.0 L 0.0,0.0 z "
         style="fill-rule:evenodd;stroke:#61cb00;stroke-width:1pt;stroke-opacity:1;fill:#61cb00;fill-opacity:1"
         transform="scale(0.8) translate(12.5,0)" />
    </marker>
    <marker
       inkscape:stockid="Arrow1Mend"
       orient="auto"
       refY="0.0"
       refX="0.0"
       id="Arrow1Mend"
       style="overflow:visible;"
       inkscape:isstock="true">
      <path
         id="path4227"
         d="M 0.0,0.0 L 5.0,-5.0 L -12.5,0.0 L 5.0,5.0 L 0.0,0.0 z "
         style="fill-rule:evenodd;stroke:#61cb00;stroke-width:1pt;stroke-opacity:1;fill:#61cb00;fill-opacity:1"
         transform="scale(0.4) rotate(180) translate(10,0)" />
    </marker>
    <marker
       inkscape:stockid="Arrow1Lend"
       orient="auto"
       refY="0.0"
       refX="0.0"
       id="marker4526"
       style="overflow:visible;"
       inkscape:isstock="true">
      <path
         id="path4528"
         d="M 0.0,0.0 L 5.0,-5.0 L -12.5,0.0 L 5.0,5.0 L 0.0,0.0 z "
         style="fill-rule:evenodd;stroke:#61cb00;stroke-width:1pt;stroke-opacity:1;fill:#61cb00;fill-opacity:1"
         transform="scale(0.8) rotate(180) translate(12.5,0)" />
    </marker>
    <marker
       inkscape:stockid="Arrow1Lstart"
       orient="auto"
       refY="0.0"
       refX="0.0"
       id="Arrow1Lstart"
       style="overflow:visible"
       inkscape:isstock="true">
      <path
         id="path4218"
         d="M 0.0,0.0 L 5.0,-5.0 L -12.5,0.0 L 5.0,5.0 L 0.0,0.0 z "
         style="fill-rule:evenodd;stroke:#61cb00;stroke-width:1pt;stroke-opacity:1;fill:#61cb00;fill-opacity:1"
         transform="scale(0.8) translate(12.5,0)" />
    </marker>
    <marker
       inkscape:stockid="Arrow1Lend"
       orient="auto"
       refY="0.0"
       refX="0.0"
       id="Arrow1Lend"
       style="overflow:visible;"
       inkscape:isstock="true">
      <path
         id="path4221"
         d="M 0.0,0.0 L 5.0,-5.0 L -12.5,0.0 L 5.0,5.0 L 0.0,0.0 z "
         style="fill-rule:evenodd;stroke:#61cb00;stroke-width:1pt;stroke-opacity:1;fill:#22ff78;fill-opacity:1"
         transform="scale(0.8) rotate(180) translate(12.5,0)" />
    </marker>
    <marker
       inkscape:stockid="Arrow1Lstart"
       orient="auto"
       refY="0"
       refX="0"
       id="marker4622-5"
       style="overflow:visible"
       inkscape:isstock="true">
      <path
         inkscape:connector-curvature="0"
         id="path4624-3"
         d="M 0,0 5,-5 -12.5,0 5,5 0,0 Z"
         style="fill:#61cb00;fill-opacity:1;fill-rule:evenodd;stroke:#61cb00;stroke-width:1pt;stroke-opacity:1"
         transform="matrix(0.8,0,0,0.8,10,0)" />
    </marker>
    <marker
       inkscape:stockid="Arrow1Lstart"
       orient="auto"
       refY="0"
       refX="0"
       id="marker4622-5-6"
       style="overflow:visible"
       inkscape:isstock="true">
      <path
         inkscape:connector-curvature="0"
         id="path4624-3-2"
         d="M 0,0 5,-5 -12.5,0 5,5 0,0 Z"
         style="fill:#61cb00;fill-opacity:1;fill-rule:evenodd;stroke:#61cb00;stroke-width:1pt;stroke-opacity:1"
         transform="matrix(0.8,0,0,0.8,10,0)" />
    </marker>
    <marker
       inkscape:stockid="Arrow1Lstart"
       orient="auto"
       refY="0"
       refX="0"
       id="marker4622-5-6-1"
       style="overflow:visible"
       inkscape:isstock="true">
      <path
         inkscape:connector-curvature="0"
         id="path4624-3-2-2"
         d="M 0,0 5,-5 -12.5,0 5,5 0,0 Z"
         style="fill:#61cb00;fill-opacity:1;fill-rule:evenodd;stroke:#61cb00;stroke-width:1pt;stroke-opacity:1"
         transform="matrix(0.8,0,0,0.8,10,0)" />
    </marker>
    <marker
       inkscape:stockid="Arrow1Lstart"
       orient="auto"
       refY="0"
       refX="0"
       id="marker4622-5-6-1-9"
       style="overflow:visible"
       inkscape:isstock="true">
      <path
         inkscape:connector-curvature="0"
         id="path4624-3-2-2-3"
         d="M 0,0 5,-5 -12.5,0 5,5 0,0 Z"
         style="fill:#61cb00;fill-opacity:1;fill-rule:evenodd;stroke:#61cb00;stroke-width:1pt;stroke-opacity:1"
         transform="matrix(0.8,0,0,0.8,10,0)" />
    </marker>
    <marker
       inkscape:stockid="Arrow1Lstart"
       orient="auto"
       refY="0"
       refX="0"
       id="marker4622-5-6-1-6"
       style="overflow:visible"
       inkscape:isstock="true">
      <path
         inkscape:connector-curvature="0"
         id="path4624-3-2-2-1"
         d="M 0,0 5,-5 -12.5,0 5,5 0,0 Z"
         style="fill:#1a0ed4;fill-opacity:1;fill-rule:evenodd;stroke:#1a0ed4;stroke-width:1pt;stroke-opacity:1"
         transform="matrix(0.8,0,0,0.8,10,0)" />
    </marker>
  </defs>
  <sodipodi:namedview
     id="base"
     pagecolor="#ffffff"
     bordercolor="#666666"
     borderopacity="1.0"
     inkscape:pageopacity="0.0"
     inkscape:pageshadow="2"
     inkscape:zoom="0.54170354"
     inkscape:cx="-441.39609"
     inkscape:cy="436.79839"
     inkscape:document-units="px"
     inkscape:current-layer="layer1"
     showgrid="false"
     inkscape:window-width="1855"
     inkscape:window-height="1056"
     inkscape:window-x="1431"
     inkscape:window-y="24"
     inkscape:window-maximized="1" />
  <metadata
     id="metadata7">
    <rdf:RDF>
      <cc:Work
         rdf:about="">
        <dc:format>image/svg+xml</dc:format>
        <dc:type
           rdf:resource="http://purl.org/dc/dcmitype/StillImage" />
        <dc:title></dc:title>
      </cc:Work>
    </rdf:RDF>
  </metadata>
  <g
     inkscape:label="Layer 1"
     inkscape:groupmode="layer"
     id="layer1">
    <rect
       style="fill:#6cffff;fill-opacity:1;stroke:#000000;stroke-width:5;stroke-miterlimit:4;stroke-dasharray:none;stroke-opacity:1"
       id="rect4136"
       width="482.85712"
       height="1248.5714"
       x="-745.71429"
       y="-61.923508" />
    <rect
       style="fill:#4b7090;fill-opacity:1;stroke:#000000;stroke-width:3.77912307;stroke-miterlimit:4;stroke-dasharray:none;stroke-opacity:1"
       id="rect4140"
       width="198.3638"
       height="189.79236"
       x="-257.7533"
       y="-65.39109"
       ry="0" />
    <rect
       style="fill:#4b7090;fill-opacity:1;stroke:#000000;stroke-width:3.88910007;stroke-miterlimit:4;stroke-dasharray:none;stroke-opacity:1"
       id="rect4140-3"
       width="198.25383"
       height="201.11095"
       x="-259.12692"
       y="298.94958"
       ry="0" />
    <rect
       style="fill:#4b7090;fill-opacity:1;stroke:#000000;stroke-width:3.77912307;stroke-miterlimit:4;stroke-dasharray:none;stroke-opacity:1"
       id="rect4140-3-6"
       width="198.3638"
       height="189.79236"
       x="-262.03906"
       y="998.89465"
       ry="0" />
    <rect
       style="fill:#4b7090;fill-opacity:1;stroke:#000000;stroke-width:3.88910007;stroke-miterlimit:4;stroke-dasharray:none;stroke-opacity:1"
       id="rect4140-3-7"
       width="198.25383"
       height="201.11095"
       x="-264.84119"
       y="671.8067"
       ry="0" />
    <path
       style="fill:none;fill-opacity:1;fill-rule:evenodd;stroke:#61cb00;stroke-width:9.89721775;stroke-linecap:butt;stroke-linejoin:miter;stroke-miterlimit:4;stroke-dasharray:none;stroke-opacity:1;marker-start:url(#marker4622)"
       d="M -45.921106,29.579956 C 940.02061,-387.69689 940.02061,-387.69689 940.02061,-387.69689 l -2.81694,2.83863"
       id="path4208"
       inkscape:connector-curvature="0" />
    <path
       style="fill:none;fill-opacity:1;fill-rule:evenodd;stroke:#61cb00;stroke-width:9.89721775;stroke-linecap:butt;stroke-linejoin:miter;stroke-miterlimit:4;stroke-dasharray:none;stroke-opacity:1;marker-start:url(#marker4622-5)"
       d="M -52.147097,1091.1974 C 933.79462,673.9206 933.79462,673.9206 933.79462,673.9206 l -2.81694,2.83863"
       id="path4208-5"
       inkscape:connector-curvature="0" />
    <path
       style="fill:none;fill-opacity:1;fill-rule:evenodd;stroke:#61cb00;stroke-width:6.32849979;stroke-linecap:butt;stroke-linejoin:miter;stroke-miterlimit:4;stroke-dasharray:none;stroke-opacity:1;marker-start:url(#marker4622-5-6)"
       d="M -75.112129,551.20513 C 903.74345,282.89092 903.74345,282.89092 903.74345,282.89092 l -2.95055,2.14438"
       id="path4208-5-9"
       inkscape:connector-curvature="0" />
    <path
       style="fill:none;fill-rule:evenodd;stroke:#000000;stroke-width:4.09909487;stroke-linecap:butt;stroke-linejoin:miter;stroke-miterlimit:4;stroke-dasharray:none;stroke-opacity:1"
       d="m -145.63057,556.25268 c 372.81791,-1.32587 374.07531,-1.32587 374.07531,-1.32587"
       id="path6350"
       inkscape:connector-curvature="0" />
    <path
       style="fill:none;fill-opacity:1;fill-rule:evenodd;stroke:#61cb00;stroke-width:3.53832912;stroke-linecap:butt;stroke-linejoin:miter;stroke-miterlimit:4;stroke-dasharray:none;stroke-opacity:1;marker-start:url(#marker4622-5-6-1);marker-end:"
       d="m -738.96346,698.74945 c 469.44501,-88.78615 469.44501,-88.78615 469.44501,-88.78615 l -1.41502,0.70957"
       id="path4208-5-9-7"
       inkscape:connector-curvature="0" />
    <path
       style="fill:none;fill-rule:evenodd;stroke:#000000;stroke-width:5.05344009;stroke-linecap:butt;stroke-linejoin:miter;stroke-miterlimit:4;stroke-dasharray:none;stroke-opacity:1"
       d="m -1004.6401,703.46272 c 569.70536,-1.31871 571.6268,-1.31871 571.6268,-1.31871"
       id="path6350-0"
       inkscape:connector-curvature="0" />
    <path
       style="fill:none;fill-opacity:1;fill-rule:evenodd;stroke:#61cb00;stroke-width:5.74355173;stroke-linecap:butt;stroke-linejoin:miter;stroke-miterlimit:4;stroke-dasharray:none;stroke-opacity:1;marker-start:url(#marker4622-5-6-1-9)"
       d="m -1166.7041,963.34668 c 421.05526,-260.82874 421.05526,-260.82874 421.05526,-260.82874 l -1.26916,2.08452"
       id="path4208-5-9-7-6"
       inkscape:connector-curvature="0" />
    <flowRoot
       xml:space="preserve"
       id="flowRoot9315"
       style="fill:black;stroke:none;stroke-opacity:1;stroke-width:1px;stroke-linejoin:miter;stroke-linecap:butt;fill-opacity:1;font-family:sans-serif;font-style:normal;font-weight:normal;font-size:40px;line-height:125%;letter-spacing:0px;word-spacing:0px"><flowRegion
         id="flowRegion9317"><rect
           id="rect9319"
           width="370.58493"
           height="149.81093"
           x="-684.66223"
           y="434.72064" /></flowRegion><flowPara
         id="flowPara9321"></flowPara></flowRoot>    <path
       style="fill:none;fill-rule:evenodd;stroke:#000000;stroke-width:1px;stroke-linecap:butt;stroke-linejoin:miter;stroke-opacity:1"
       d="m -210.44721,875.1435 12.9222,25.84439"
       id="path9329"
       inkscape:connector-curvature="0" />
    <path
       style="fill:none;fill-rule:evenodd;stroke:#000000;stroke-width:1px;stroke-linecap:butt;stroke-linejoin:miter;stroke-opacity:1"
       d="m -199.37104,888.0657 c -0.22696,4.40331 4.72854,7.02848 5.53808,11.07617 0.36204,1.81018 0,3.69205 0,5.53808 0,4.3074 0,8.6148 0,12.9222 0,0.98617 0.26417,8.7018 0,9.23014 -0.38918,0.77835 -1.23068,1.23068 -1.84603,1.84603 -0.61534,0.61534 -1.23068,1.23068 -1.84602,1.84603 -1.23069,1.23068 -2.46138,2.46137 -3.69206,3.69205 -0.61534,0.61534 -1.12196,1.36332 -1.84603,1.84603 -9.32578,6.21718 -0.0428,0.0143 -5.53808,1.84603 -1.30534,0.43511 -2.46137,1.23068 -3.69206,1.84603 -2.46137,1.23068 -5.02438,2.27621 -7.38411,3.69205 -0.74622,0.44773 -1.00179,1.63497 -1.84603,1.84603 -1.79091,0.44773 -3.69206,0 -5.53809,0 -0.61534,0 -1.29564,-0.27519 -1.84602,0 -0.77836,0.38918 -1.23069,1.23069 -1.84603,1.84603 -2.68006,2.68006 -1.84603,1.9984 -1.84603,5.53808 0,4.43722 -0.19459,-0.77835 1.84603,7.38412 0.14924,0.59697 -0.34133,1.33403 0,1.84602 0.96543,1.44815 2.46137,2.46138 3.69205,3.69206 0.61535,0.61534 1.12196,1.36331 1.84603,1.84603 1.14486,0.76324 2.5472,1.08279 3.69206,1.84603 1.44814,0.96543 2.46137,2.46137 3.69206,3.69205 0.61534,0.61535 2.46137,1.23069 1.84602,1.84603 -0.61534,0.61534 -2.46137,-2.46137 -1.84602,-1.84603 4.12716,4.12717 3.69205,1.95161 3.69205,5.53809 0,0.61534 0,1.23068 0,1.84603 0,0.61534 0.61534,1.84602 0,1.84602 -0.61534,0 0,-2.46137 0,-1.84602 0,1.23068 0,2.46137 0,3.69205 0,1.23069 0,2.46137 0,3.69206 0,0.61534 0.61534,1.84603 0,1.84603 -0.61534,0 0,-1.23069 0,-1.84603"
       id="path9331"
       inkscape:connector-curvature="0" />
    <path
       style="fill:none;fill-rule:evenodd;stroke:#000000;stroke-width:1px;stroke-linecap:butt;stroke-linejoin:miter;stroke-opacity:1"
       d="m -188.29487,886.21967 c 2.46137,1.23068 5.18259,2.04092 7.38411,3.69206 0.49227,0.3692 0,1.23068 0,1.84602 0,2.46137 0,4.92275 0,7.38412 0,3.69205 0,7.38411 0,11.07617 0,0.43867 0.20687,6.97036 0,7.38411 -0.38918,0.77835 -1.23069,1.23068 -1.84603,1.84603 0,1.23068 0.38918,2.52452 0,3.69205 -0.27519,0.82557 -1.23068,1.23069 -1.84603,1.84603 -0.61534,1.23069 -1.57618,2.34283 -1.84603,3.69206 -0.36203,1.81018 0.6856,3.82409 0,5.53808 -0.64638,1.61597 -2.9137,2.13535 -3.69205,3.69206 -0.21705,0.43409 0,6.17141 0,7.38411 0,3.69206 0,7.38411 0,11.07617 0,1.23069 0,2.46137 0,3.69206 0,0.61534 0.27519,1.29564 0,1.84602 -0.38918,0.77836 -1.45685,1.06768 -1.84603,1.84603 -0.27519,0.55038 0,1.23069 0,1.84603 0,1.23069 0,2.46137 0,3.69206 0,1.73866 -0.35005,8.18 0,9.23014 0.55038,1.65114 2.9137,2.13535 3.69206,3.69205 0.27519,0.55038 0,1.23069 0,1.84603 0,1.23069 -0.38918,2.52453 0,3.69206 2.28114,6.84342 1.84602,-2.25022 1.84602,3.69205"
       id="path9333"
       inkscape:connector-curvature="0" />
    <path
       style="fill:none;fill-rule:evenodd;stroke:#000000;stroke-width:1px;stroke-linecap:butt;stroke-linejoin:miter;stroke-opacity:1"
       d="m -227.06147,878.83556 c 0,9.23014 0,18.46028 0,27.69042 0,1.56294 0.33082,6.39168 0,7.38411 -0.2809,0.84272 -4.70671,4.70671 -5.53808,5.53809 -2.46137,2.46137 -4.92274,4.92274 -7.38411,7.38411 -1.23069,1.23068 -2.24392,2.72663 -3.69206,3.69206 -1.14486,0.76323 -2.5472,1.08278 -3.69206,1.84602 -0.72407,0.48272 -1.12195,1.36332 -1.84602,1.84603 -1.14486,0.76324 -2.5472,1.08279 -3.69206,1.84603 -1.26188,0.84125 -7.02403,6.84399 -7.38411,7.38411 -0.34133,0.512 0.27519,1.29565 0,1.84603 -0.77836,1.55671 -2.9137,2.13535 -3.69206,3.69206 -0.2809,0.56181 0,4.70671 0,5.53808 0,1.42575 -0.37541,9.94992 0,11.07617 0.43511,1.30534 1.41092,2.38672 1.84603,3.69206 0.19459,0.58376 -0.27519,1.29565 0,1.84603 0.38918,0.77835 1.45685,1.06767 1.84603,1.84602 0.27519,0.55038 0,1.23069 0,1.84603 0,1.23069 -0.38918,2.52453 0,3.69206 0.13722,0.41166 6.84364,7.11388 7.38411,7.38411 0.54751,0.27375 9.29063,0 11.07617,0"
       id="path9335"
       inkscape:connector-curvature="0" />
    <path
       style="fill:none;fill-rule:evenodd;stroke:#000000;stroke-width:1px;stroke-linecap:butt;stroke-linejoin:miter;stroke-opacity:1"
       d="m -158.75842,884.37364 c 0,6.76877 0,13.53754 0,20.30631 0,1.23069 0.45706,2.54939 0,3.69206 -0.82399,2.05996 -2.86807,3.47812 -3.69206,5.53808 -0.45706,1.14266 0,2.46137 0,3.69206 0,1.84603 0.36204,3.7279 0,5.53808 -0.26984,1.34923 -1.57618,2.34283 -1.84603,3.69206 -0.48923,2.44615 0,6.45784 0,9.23014 0,1.47305 -0.36917,8.12263 0,9.23014 0.43512,1.30534 1.41092,2.38672 1.84603,3.69206 0.19459,0.58376 -0.27519,1.29565 0,1.84603 0.38918,0.77835 1.45685,1.06767 1.84603,1.84602 0.27519,0.55038 -0.27519,1.29565 0,1.84603 0.38918,0.77836 1.45685,1.06768 1.84603,1.84603 0.87022,1.74045 1.37408,3.6503 1.84603,5.53808 0.14924,0.59697 -0.34134,1.33404 0,1.84603 0.96542,1.44815 2.72662,2.24392 3.69205,3.69206 0.0134,0.0201 0.0432,5.45164 0,5.53808 -0.38918,0.77836 -1.36331,1.12196 -1.84603,1.84603 -0.76324,1.14486 -1.08279,2.5472 -1.84602,3.69206 -0.48272,0.72407 -1.45686,1.06767 -1.84603,1.84603 -1.27317,2.54633 2.23564,1.65122 -1.84603,3.69205 -0.55038,0.27519 -1.29565,-0.27519 -1.84603,0 -0.77835,0.38918 -1.23068,1.23069 -1.84603,1.84603 -0.61534,0.61534 -1.23068,1.23069 -1.84603,1.84603"
       id="path9337"
       inkscape:connector-curvature="0" />
    <path
       style="fill:none;fill-rule:evenodd;stroke:#000000;stroke-width:1px;stroke-linecap:butt;stroke-linejoin:miter;stroke-opacity:1"
       d="m -123.68389,888.0657 c -2.46137,3.07671 -4.92274,6.15342 -7.38411,9.23014 0,0.61534 0.34133,1.33403 0,1.84603 -4.00693,6.01038 -3.43396,1.07172 -5.53808,7.38411 -0.19459,0.58376 0.14924,1.24906 0,1.84603 -0.47195,1.88778 -1.37409,3.6503 -1.84603,5.53808 -0.29849,1.19394 0.38917,2.52453 0,3.69206 -0.43512,1.30534 -1.41092,2.38672 -1.84603,3.69205 -0.38622,1.15867 0,5.898 0,7.38412 0,2.01568 -0.39795,8.0363 0,9.23014 1.31219,3.93657 2.53289,4.37892 5.53808,7.38411 0.61535,0.61534 1.57084,1.02046 1.84603,1.84603 0.38918,1.16753 -0.38918,2.52452 0,3.69206 0.27519,0.82556 1.36332,1.12195 1.84603,1.84602 3.22602,4.83903 0.69,3.22602 3.69206,9.23014 0.38917,0.77836 1.45685,1.06768 1.84602,1.84603 0.28091,0.56181 0,4.70671 0,5.53809 0,2.13682 0.41203,7.58203 0,9.23014 -0.95268,3.81072 -3.69205,4.75967 -3.69205,9.23014"
       id="path9339"
       inkscape:connector-curvature="0" />
    <path
       style="fill:none;fill-rule:evenodd;stroke:#000000;stroke-width:1px;stroke-linecap:butt;stroke-linejoin:miter;stroke-opacity:1"
       d="m -97.839493,880.68158 c -9.541397,32.96109 2.468527,-6.80454 -1.846028,14.76823 -0.269846,1.34923 -1.410919,2.38672 -1.846029,3.69206 -0.19459,0.58376 0,1.23068 0,1.84602 0,1.84603 0,3.69206 0,5.53809 0,1.23068 0.29849,2.49812 0,3.69206 -0.33372,1.33486 -1.41091,2.38671 -1.84603,3.69205 -0.38917,1.16753 0,2.46137 0,3.69206 0,3.07671 0,6.15343 0,9.23014 0,1.42575 -0.37541,9.94992 0,11.07617 1.31219,3.93657 2.53289,4.37892 5.538087,7.38411 0.615343,0.61534 1.570838,1.02046 1.846028,1.84603 0.389177,1.16753 0,2.46137 0,3.69206 0,2.13682 -0.412026,7.58203 0,9.23014 0.333716,1.33486 1.410915,2.38671 1.846028,3.69205 0.401611,1.20484 0,8.86904 0,11.07617 0,1.23069 0,2.46137 0,3.69206 0,0.61534 0.341331,1.33403 0,1.84603 -0.965429,1.44814 -2.461371,2.46137 -3.692056,3.69205 -0.615343,0.61535 -1.456851,1.06768 -1.846028,1.84603 -0.27519,0.55038 0.194588,1.26226 0,1.84603 -2.671599,8.01479 -1.846029,-1.26822 -1.846029,9.23014"
       id="path9341"
       inkscape:connector-curvature="0" />
    <path
       style="fill:none;fill-rule:evenodd;stroke:#000000;stroke-width:1px;stroke-linecap:butt;stroke-linejoin:miter;stroke-opacity:1"
       d="m -73.841127,878.83556 c -5.010297,2.90073 -0.455919,7.60089 -1.846028,11.07617 -0.823986,2.05996 -2.550571,3.6356 -3.692056,5.53808 -4.905855,8.17642 -0.600701,0.55678 -1.846029,5.53808 -0.471946,1.88779 -1.123344,3.73138 -1.846028,5.53809 -0.511014,1.27753 -1.512312,2.35719 -1.846028,3.69206 -0.287822,1.15128 0.456434,6.24302 0,7.38411 3.356555,5.27797 -4.098207,6.35038 -5.538085,9.23014 -0.280629,0.56126 0,6.10939 0,7.38411 0,2.46137 0,4.92274 0,7.38411 0,1.23069 -0.389176,2.52453 0,3.69206 0.435114,1.30534 1.410916,2.38672 1.846029,3.69206 0.194588,0.58376 -0.27519,1.29565 0,1.84603 0.778353,1.5567 2.913702,2.13534 3.692056,3.69205 0.27519,0.55038 -0.27519,1.29565 0,1.84603 0.389177,0.77835 1.456851,1.06767 1.846028,1.84603 0.27519,0.55038 -0.341331,1.33403 0,1.84603 0.965429,1.44814 2.461371,2.46137 3.692057,3.69205 0.615342,0.61535 1.570838,1.02046 1.846028,1.84603 0.65387,1.96161 -0.653871,5.4225 0,7.38411 2.121218,6.36366 1.846028,1.36747 1.846028,5.53809"
       id="path9343"
       inkscape:connector-curvature="0" />
    <path
       style="fill:none;fill-rule:evenodd;stroke:#000000;stroke-width:1px;stroke-linecap:butt;stroke-linejoin:miter;stroke-opacity:1"
       d="m -230.75352,504.09184 c 2.46137,0.61534 5.35441,0.32375 7.38411,1.84603 0.98455,0.73841 0,2.46137 0,3.69205 0,1.23069 0,2.46137 0,3.69206 0,1.84603 0.44773,3.74717 0,5.53808 -0.21106,0.84425 -1.23068,1.23069 -1.84603,1.84603 -0.61534,1.84603 -1.52612,3.61868 -1.84603,5.53809 -0.30348,1.82091 0.30349,3.71717 0,5.53808 -1.84859,11.09154 -1.28166,0.79376 -3.69205,9.23014 -0.86198,3.01692 -1.08504,6.18618 -1.84603,9.23014 -0.47195,1.88779 -1.37408,3.6503 -1.84603,5.53809 -0.29848,1.19394 0,2.46137 0,3.69205 0,4.3074 0,8.6148 0,12.9222 0,2.65024 -0.54832,7.03684 0,9.23014 0.0648,0.25914 3.33467,3.15597 3.69206,3.69206 3.66497,1.66373 0.71139,5.11484 1.84603,7.38411 1.16753,2.33506 4.37055,3.20302 5.53808,5.53808 0.27519,0.55038 -0.27519,1.29565 0,1.84603 0.38918,0.77836 1.45685,1.06768 1.84603,1.84603 0.27519,0.55038 -0.27519,1.29565 0,1.84603 0.38918,0.77835 1.57084,1.02046 1.84603,1.84603 0.38917,1.16753 -0.55038,2.59129 0,3.69205 0.77835,1.55671 2.46137,2.46137 3.69205,3.69206 0.61535,0.61534 1.57084,1.02046 1.84603,1.84603 0.77836,2.33506 -0.59697,4.99623 0,7.38411 0.33372,1.33487 1.51231,2.35719 1.84603,3.69206 0.29849,1.19394 0,2.46137 0,3.69205 0,3.69206 0,7.38412 0,11.07617 0,0.22606 0.16468,14.43886 0,14.76823 -2.55408,5.10817 -8.56525,5.20564 -12.9222,7.38411 -0.77835,0.38918 -1.23068,1.23069 -1.84603,1.84603 -0.61534,0.61534 -1.45685,1.06767 -1.84602,1.84603 -0.27519,0.55038 0,1.23068 0,1.84602 -0.61535,1.23069 -1.02046,2.5913 -1.84603,3.69206 -1.56641,2.08854 -3.69206,3.69206 -5.53809,5.53809"
       id="path9345"
       inkscape:connector-curvature="0" />
    <path
       style="fill:none;fill-rule:evenodd;stroke:#000000;stroke-width:1px;stroke-linecap:butt;stroke-linejoin:miter;stroke-opacity:1"
       d="m -188.29487,505.93787 c -0.70124,6.8416 -4.39506,12.48217 -7.38412,18.46028 -0.61534,1.23068 -1.51231,2.35719 -1.84602,3.69205 -0.59697,2.38788 0.48271,4.97054 0,7.38412 -0.38162,1.90809 -1.46441,3.62998 -1.84603,5.53808 -0.24136,1.20679 0,2.46137 0,3.69206 0,2.46137 0,4.92274 0,7.38411 0,6.15343 0,12.30685 0,18.46028 0,6.76877 0,13.53754 0,20.30631 0,1.54585 -0.35096,7.8263 0,9.23014 0.33371,1.33487 1.41091,2.38672 1.84603,3.69206 0.36313,1.08939 0,8.19871 0,9.23014 0,0.61534 0,1.23068 0,1.84603 0,0.61534 -0.34134,1.33403 0,1.84603 0.96542,1.44814 2.72662,2.24391 3.69205,3.69205 0.34133,0.512 0,1.23069 0,1.84603 0,0.61534 0,1.23069 0,1.84603 0,2.46137 0,4.92274 0,7.38411 0,4.3074 0,8.6148 0,12.9222 0,1.84603 0.44773,3.74717 0,5.53808 -0.2056,0.82242 -2.15672,5.02631 -3.69205,5.53809 -1.7513,0.58376 -3.69206,0 -5.53809,0"
       id="path9347"
       inkscape:connector-curvature="0" />
    <path
       style="fill:none;fill-rule:evenodd;stroke:#000000;stroke-width:1px;stroke-linecap:butt;stroke-linejoin:miter;stroke-opacity:1"
       d="m -239.98366,509.62992 c -2.04835,12.29011 -1.84603,7.33319 -1.84603,14.76823 0,12.30685 0,24.61371 0,36.92056 0,3.69206 0,7.38411 0,11.07617 0,1.23069 0,2.46137 0,3.69206 0,0.61534 0.19459,1.26226 0,1.84602 -0.43511,1.30534 -1.51231,2.35719 -1.84603,3.69206 -0.59697,2.38788 0.77835,5.04905 0,7.38411 -0.27519,0.82557 -1.57084,1.02046 -1.84603,1.84603 -0.38917,1.16753 0,2.46137 0,3.69206 0,0.61534 0.27519,1.29565 0,1.84603 -0.99221,1.98442 -2.86807,3.47812 -3.69205,5.53808 -0.28754,0.71885 0,5.99119 0,7.38411 0,6.15343 0,12.30686 0,18.46028 0,1.90998 -0.35168,11.5155 0,12.9222 0.33371,1.33487 1.41091,2.38672 1.84602,3.69206 0.38623,1.15866 0,5.89799 0,7.38411 0,2.46137 0,4.92274 0,7.38411 0,0.61535 0,1.23069 0,1.84603 0,0.61534 0.27519,1.29565 0,1.84603 -0.38917,0.77835 -1.23068,1.23069 -1.84602,1.84603"
       id="path9349"
       inkscape:connector-curvature="0" />
    <path
       style="fill:none;fill-rule:evenodd;stroke:#000000;stroke-width:1px;stroke-linecap:butt;stroke-linejoin:miter;stroke-opacity:1"
       d="m -162.45048,520.70609 c 0,9.23014 0,18.46028 0,27.69042 0,1.84603 0.58377,3.78679 0,5.53809 -0.7016,2.10479 -2.86807,3.47812 -3.69206,5.53808 -0.85021,2.12553 0.74826,6.98537 0,9.23014 -0.27519,0.82557 -1.57083,1.02046 -1.84602,1.84603 -0.74444,2.23331 0.62863,8.56163 0,11.07617 -0.33372,1.33487 -1.41092,2.38672 -1.84603,3.69206 -0.38622,1.15866 0,5.89799 0,7.38411 0,6.15343 0,12.30685 0,18.46028 0,4.3074 0,8.6148 0,12.9222 0,0.60624 -0.18337,5.26303 0,5.53808 0.96543,1.44815 2.72663,2.24392 3.69205,3.69206 0.34134,0.512 -0.19458,1.26226 0,1.84603 0.43512,1.30534 1.51232,2.35719 1.84603,3.69205 0.29849,1.19394 -0.38917,2.52453 0,3.69206 0.27519,0.82557 1.45685,1.06767 1.84603,1.84603 0.41072,0.82144 -0.28145,6.53976 0,7.38411 0.27519,0.82557 1.45685,1.06768 1.84603,1.84603 0.20687,0.41375 0,6.94544 0,7.38411"
       id="path9351"
       inkscape:connector-curvature="0" />
    <path
       style="fill:none;fill-rule:evenodd;stroke:#000000;stroke-width:1px;stroke-linecap:butt;stroke-linejoin:miter;stroke-opacity:1"
       d="m -112.60772,505.93787 c -21.94136,16.45602 -4.57112,0.35162 -7.38411,7.38411 -1.02203,2.55507 -2.82183,4.77343 -3.69206,7.38411 -0.38917,1.16753 0.45707,2.54939 0,3.69206 -0.82398,2.05996 -2.69984,3.55366 -3.69205,5.53808 -1.74046,3.48091 -1.7612,7.69717 -3.69206,11.07617 -1.52648,2.67134 -4.16214,4.63222 -5.53808,7.38411 -0.55038,1.10076 0.29848,2.49812 0,3.69206 -0.33372,1.33487 -1.51232,2.35719 -1.84603,3.69206 -0.29849,1.19394 0.29848,2.49811 0,3.69205 -0.33372,1.33487 -1.41092,2.38672 -1.84603,3.69206 -0.58377,1.75129 0.44773,3.74717 0,5.53808 -0.33372,1.33487 -1.41092,2.38672 -1.84603,3.69206 -0.19459,0.58376 0,1.23069 0,1.84603 0,1.8847 0.29895,12.02534 0,12.92219 -0.55038,1.65114 -3.69206,1.95161 -3.69206,3.69206 0,0.87023 1.57084,1.02046 1.84603,1.84603 0.28145,0.84435 -0.41072,6.56267 0,7.38411 0.38918,0.77836 1.45685,1.06768 1.84603,1.84603 0.55038,1.10076 -0.38918,2.52453 0,3.69206 0.43511,1.30534 1.41092,2.38671 1.84603,3.69205 0.19459,0.58377 -0.34133,1.33404 0,1.84603 0.96543,1.44814 2.72663,2.24391 3.69206,3.69206 0.34133,0.51199 -0.27519,1.29565 0,1.84603 0.38917,0.77835 1.45685,1.06767 1.84602,1.84602 0.27519,0.55038 -0.19459,1.26227 0,1.84603 0.43512,1.30534 1.41092,2.38672 1.84603,3.69206 0.19459,0.58376 -0.19459,1.26226 0,1.84603 0.43511,1.30534 1.41092,2.38671 1.84603,3.69205 0.58377,1.7513 -0.36204,3.72791 0,5.53809 1.06061,5.30304 0.9444,4.63645 3.69206,7.38411 0.61534,0.61534 1.45685,1.06767 1.84602,1.84603 0.20688,0.41375 0,6.94544 0,7.38411 0,0.61534 0,1.23069 0,1.84603 0,0.61534 0.27519,1.29565 0,1.84603 -0.38917,0.77835 -1.23068,1.23068 -1.84602,1.84603 -0.61535,0.61534 -1.06768,1.45685 -1.84603,1.84602 -0.55038,0.27519 -1.41092,-0.43511 -1.84603,0 -0.97294,0.97295 -1.23069,2.46137 -1.84603,3.69206"
       id="path9353"
       inkscape:connector-curvature="0" />
    <path
       style="fill:none;fill-rule:evenodd;stroke:#000000;stroke-width:1px;stroke-linecap:butt;stroke-linejoin:miter;stroke-opacity:1"
       d="m -86.763324,505.93787 c 0,12.30685 0,24.6137 0,36.92056 0,5.04147 0.275189,-0.68798 -3.692057,9.23014 -0.457065,1.14266 0.298486,2.49812 0,3.69206 -0.471946,1.88778 -1.374081,3.6503 -1.846028,5.53808 -0.149242,0.59697 0.27519,1.29565 0,1.84603 -0.389177,0.77835 -1.570838,1.02046 -1.846028,1.84603 -0.330812,0.99243 0,5.82117 0,7.38411 0,5.53808 0,11.07617 0,16.61425 0,6.15343 0,12.30686 0,18.46028 0,2.01569 -0.397946,8.03631 0,9.23015 1.284053,3.85215 4.254032,5.37798 5.538085,9.23014 0.389177,1.16753 0,2.46137 0,3.69205 0,1.84603 0,3.69206 0,5.53809 0,5.53808 0,11.07617 0,16.61425 0,0.61534 0.194588,1.26226 0,1.84603 -0.435113,1.30534 -1.230686,2.46137 -1.846029,3.69206 -0.615342,1.23068 -1.082789,2.54719 -1.846028,3.69205 -0.482714,0.72407 -1.230685,2.46137 -1.846028,1.84603 -0.615343,-0.61534 1.230686,-1.23069 1.846028,-1.84603"
       id="path9355"
       inkscape:connector-curvature="0" />
    <path
       style="fill:none;fill-rule:evenodd;stroke:#000000;stroke-width:1px;stroke-linecap:butt;stroke-linejoin:miter;stroke-opacity:1"
       d="m -107.06963,515.16801 c -1.88191,1.73592 0.87232,11.27892 0,14.76822 -0.47195,1.88779 -1.37409,3.6503 -1.84603,5.53809 -1.09394,4.37577 3.28183,-0.82046 0,7.38411 -0.64639,1.61597 -2.72663,2.24391 -3.69206,3.69206 -0.34133,0.51199 0,1.23068 0,1.84602 0,3.07672 0,6.15343 0,9.23014 0,1.23069 0.29849,2.49812 0,3.69206 -0.33372,1.33487 -1.41091,2.38672 -1.84603,3.69206 -0.58962,1.76888 0.57006,7.51996 0,9.23014 -0.27519,0.82557 -1.63496,1.00178 -1.84602,1.84603 -0.33166,1.32662 0,9.0407 0,11.07616 0,9.35483 0.55037,-2.20151 -1.84603,7.38412 -0.35096,1.40384 0,7.68429 0,9.23014 0,1.23068 0.29848,2.49811 0,3.69205 1.11265,3.34121 -2.99046,3.43329 -3.69206,5.53809 -0.38918,1.16753 0,2.46137 0,3.69206 0,4.30739 0,8.61479 0,12.92219 0,4.92274 0,9.84549 0,14.76823 0,1.62756 -0.39324,3.96514 0,5.53808 1.41415,5.65658 0.78629,4.47835 3.69206,7.38412"
       id="path9357"
       inkscape:connector-curvature="0" />
    <path
       style="fill:none;fill-rule:evenodd;stroke:#000000;stroke-width:1px;stroke-linecap:butt;stroke-linejoin:miter;stroke-opacity:1"
       d="m -142.14417,505.93787 c 0,6.15342 0,12.30685 0,18.46028 0,1.23068 0.20232,2.47811 0,3.69205 -0.4171,2.50261 -1.42893,4.88151 -1.84603,7.38412 -0.20232,1.21394 0.24136,2.48527 0,3.69205 -0.38162,1.9081 -1.57084,3.61176 -1.84603,5.53809 -0.34809,2.43663 0.67619,5.01744 0,7.38411 -0.60951,2.13328 -3.08254,3.4048 -3.69205,5.53808 -0.57432,2.01012 0.43074,10.33776 0,12.9222 -0.3199,1.91941 -1.52613,3.61868 -1.84603,5.53809 -0.30349,1.82091 0,3.69205 0,5.53808 0,3.07671 0,6.15343 0,9.23014 0,1.23069 0.38918,2.52453 0,3.69206 -0.43511,1.30534 -1.41092,2.38671 -1.84603,3.69205 -0.19459,0.58377 0,1.23069 0,1.84603 0,2.18054 0.36592,9.97842 0,11.07617 -0.27519,0.82557 -1.57084,1.02046 -1.84603,1.84603 -0.41861,1.25585 0.48942,8.2513 0,9.23014 -0.77835,1.55671 -2.9137,2.13535 -3.69205,3.69206 -0.0483,0.0966 -0.0483,5.44151 0,5.53808 0.38917,0.77835 1.45685,1.06768 1.84603,1.84603 0.55037,1.10076 -0.55038,2.5913 0,3.69206 0.38917,0.77835 1.23068,1.23068 1.84602,1.84602 0.61535,0.61535 1.23069,1.23069 1.84603,1.84603 1.23069,1.23069 2.46137,2.46137 3.69206,3.69206 0,0.61534 -0.27519,1.29565 0,1.84603 0.38917,0.77835 1.45685,1.06767 1.84603,1.84602 0.29414,0.58828 0,7.58031 0,9.23015"
       id="path9359"
       inkscape:connector-curvature="0" />
    <path
       style="fill:none;fill-rule:evenodd;stroke:#000000;stroke-width:1px;stroke-linecap:butt;stroke-linejoin:miter;stroke-opacity:1"
       d="m -179.06473,515.16801 c 0,27.69042 0,55.38084 0,83.07126 0,4.92275 0,9.84549 0,14.76823 0,0.43867 -0.20688,6.97036 0,7.38411 0.38917,0.77836 1.57084,1.02046 1.84603,1.84603 0.38917,1.16753 -0.38918,2.52453 0,3.69206 0.27518,0.82557 1.57083,1.02046 1.84602,1.84602 0.38918,1.16754 0,2.46138 0,3.69206 0,1.23069 0,2.46137 0,3.69206 0,3.07671 0,6.15342 0,9.23014 0,0.61534 0,1.23068 0,1.84603 0,0.61534 -0.27519,1.29565 0,1.84602 0.38918,0.77836 1.57084,1.02046 1.84603,1.84603 0.38918,1.16753 0,2.46137 0,3.69206 0,3.10009 0.43511,2.78664 -3.69205,5.53808 -0.512,0.34133 -1.23069,0 -1.84603,0 -0.61535,0 -1.23069,0 -1.84603,0"
       id="path9361"
       inkscape:connector-curvature="0" />
    <path
       style="fill:none;fill-rule:evenodd;stroke:#000000;stroke-width:1px;stroke-linecap:butt;stroke-linejoin:miter;stroke-opacity:1"
       d="m -201.21707,515.16801 c -1.25999,2.31696 0.89951,17.15803 0,20.30631 -0.60951,2.13328 -2.86807,3.47812 -3.69206,5.53808 -0.45706,1.14266 0.20233,2.47812 0,3.69206 -0.4171,2.5026 -1.42892,4.88151 -1.84603,7.38411 -0.60697,3.64182 0.60697,7.43435 0,11.07617 -0.2262,1.35723 -1.51231,2.35719 -1.84602,3.69206 -0.41203,1.6481 0,7.09331 0,9.23014 0,5.53808 0,11.07616 0,16.61425 0,5.53808 0,11.07617 0,16.61425 0,1.2127 -0.21705,6.95002 0,7.38412 0.77835,1.5567 2.72662,2.24391 3.69205,3.69205 0.20908,0.31361 0,9.89429 0,11.07617 0,6.15343 0,12.30686 0,18.46028 0,0.6289 0.33303,6.38503 0,7.38412 -0.43511,1.30533 -1.41091,2.38671 -1.84603,3.69205 -0.34717,1.04153 0,4.32505 0,5.53809"
       id="path9363"
       inkscape:connector-curvature="0" />
    <path
       style="fill:none;fill-rule:evenodd;stroke:#000000;stroke-width:1px;stroke-linecap:butt;stroke-linejoin:miter;stroke-opacity:1"
       d="m -232.59955,526.24418 c 0.61534,2.46137 1.84603,4.84698 1.84603,7.38411 0,1.37595 -1.41092,2.38672 -1.84603,3.69205 -0.58377,1.7513 0.44773,3.74718 0,5.53809 -0.33372,1.33486 -1.41092,2.38672 -1.84603,3.69206 -0.58376,1.75129 0.44773,3.74717 0,5.53808 -0.33371,1.33487 -1.41091,2.38672 -1.84603,3.69206 -0.19458,0.58376 0,1.23068 0,1.84602 0,1.23069 0,2.46138 0,3.69206 0,4.3074 0,8.6148 0,12.9222 0,1.84603 0.44773,3.74717 0,5.53808 -0.21106,0.84425 -1.57083,1.02046 -1.84602,1.84603 -0.38918,1.16753 0,2.46137 0,3.69206 -1.23069,1.23068 -2.72663,2.24391 -3.69206,3.69205 -0.34133,0.512 0,1.23069 0,1.84603 0,1.23069 0,2.46137 0,3.69206 0,1.23068 0,2.46137 0,3.69205 0,0.61535 0.19459,1.26227 0,1.84603 -0.43511,1.30534 -1.51231,2.35719 -1.84603,3.69206 -0.22484,0.89937 0.48807,6.40798 0,7.38411 -0.38918,0.77836 -1.57084,1.02046 -1.84603,1.84603 -0.33081,0.99244 0,5.82117 0,7.38411 0,4.92274 0,9.84549 0,14.76823 0,1.78553 -0.27375,10.52866 0,11.07617 2.04084,4.08167 1.14573,0.57286 3.69206,1.84602 0.77835,0.38918 1.06767,1.45686 1.84603,1.84603 0.55038,0.27519 1.26226,-0.19459 1.84603,0 1.30533,0.43512 2.38671,1.41092 3.69205,1.84603 0.58377,0.19459 1.23069,0 1.84603,0 3.53969,0 2.85803,-0.83403 5.53808,1.84603 0.61535,0.61534 1.84603,0.9758 1.84603,1.84603 0,0.61534 -1.23068,0 -1.84603,0 -1.23068,0 -2.46137,0 -3.69205,0 -1.23069,0 -2.52453,0.38917 -3.69206,0 -0.82557,-0.27519 -1.23068,-1.23069 -1.84603,-1.84603 -0.61534,-0.61534 -1.57083,-1.02046 -1.84602,-1.84603 -0.58377,-1.7513 0,-3.69206 0,-5.53808 0,-1.64984 -0.29414,-8.64186 0,-9.23014 0.38917,-0.77836 1.45685,-1.06768 1.84602,-1.84603 0.27519,-0.55038 -0.12067,-1.24264 0,-1.84603 0.49757,-2.48785 0.90377,-5.02845 1.84603,-7.38411 0.3232,-0.80799 1.23069,-1.23069 1.84603,-1.84603 0.61534,-2.46137 1.34846,-4.89626 1.84603,-7.38411 1.4629,-7.31453 -6.18096,10.83732 1.84603,-9.23015 0.32319,-0.80798 1.57084,-1.02045 1.84602,-1.84602 2.6642,-7.9926 -3.52904,0.67849 1.84603,-7.38412 0.96543,-1.44814 2.91371,-2.13534 3.69206,-3.69205 0.27519,-0.55038 -0.27519,-1.29565 0,-1.84603 0.38918,-0.77835 1.23068,-1.23069 1.84603,-1.84603 0.61534,-1.23068 1.33501,-2.41452 1.84603,-3.69206 0.72268,-1.8067 0.84487,-3.8695 1.84602,-5.53808 0.89546,-1.49242 2.7966,-2.19963 3.69206,-3.69206 1.00115,-1.66858 1.12334,-3.73137 1.84603,-5.53808 0.51101,-1.27754 1.51231,-2.35719 1.84603,-3.69206 0.29848,-1.19394 -0.55038,-2.59129 0,-3.69205 0.77835,-1.55671 2.72662,-2.24392 3.69205,-3.69206 0.34133,-0.512 -0.19459,-1.26226 0,-1.84603 0.43512,-1.30534 1.41092,-2.38671 1.84603,-3.69205 0.37542,-1.12625 0,-9.65042 0,-11.07617 0,-9.23014 0,-18.46028 0,-27.69043"
       id="path9365"
       inkscape:connector-curvature="0" />
    <path
       style="fill:none;fill-rule:evenodd;stroke:#000000;stroke-width:1px;stroke-linecap:butt;stroke-linejoin:miter;stroke-opacity:1"
       d="m -214.13927,131.19415 c -2.46137,0 -5.09879,-0.91413 -7.38411,0 -1.27754,0.51101 -1.23069,2.46137 -1.84603,3.69205 -4.3894,8.77881 0.45865,-2.29324 -1.84603,9.23014 -0.53969,2.69846 -3.02462,4.71438 -3.69205,7.38412 -0.29849,1.19394 0,2.46137 0,3.69205 0,4.92274 0,9.84549 0,14.76823 0,6.76877 0,13.53754 0,20.30631 0,1.84603 0,3.69205 0,5.53808 0,1.23069 -0.24136,2.48527 0,3.69206 0.38162,1.9081 1.12334,3.73137 1.84602,5.53808 0.51102,1.27754 1.57619,2.34283 1.84603,3.69206 0.36204,1.81018 -0.44772,3.74717 0,5.53808 0.21106,0.84425 1.3239,1.14985 1.84603,1.84603 1.33119,1.77492 2.36087,3.76317 3.69206,5.53809 0.52213,0.69618 1.36331,1.12195 1.84603,1.84602 0.76323,1.14486 1.08278,2.5472 1.84602,3.69206 0.48272,0.72407 1.57084,1.02046 1.84603,1.84603 2.6642,7.9926 -3.52904,-0.6785 1.84603,7.38411 0.48271,0.72407 1.36331,1.12196 1.84603,1.84603 0.76324,1.14486 1.08279,2.5472 1.84603,3.69206 0.48271,0.72407 1.36331,1.12195 1.84602,1.84602 0.76324,1.14486 1.02046,2.5913 1.84603,3.69206 1.04427,1.39236 2.72663,2.24391 3.69206,3.69206 0.34133,0.51199 -0.27519,1.29565 0,1.84603 6.1225,6.1225 -0.87023,-1.74046 1.84603,3.69205 0.38917,0.77836 1.57084,1.02046 1.84603,1.84603 0.38917,1.16753 -0.38918,2.52453 0,3.69206 0.27519,0.82557 1.45685,1.06767 1.84602,1.84602 0.27376,0.54751 0,9.29064 0,11.07617 0,0.72976 0.39421,8.44174 0,9.23014 -0.38917,0.77836 -1.45685,1.06768 -1.84602,1.84603 -0.27519,0.55038 0.34133,1.33403 0,1.84603 -2.3325,3.49875 -3.97936,3.8357 -7.38412,5.53809"
       id="path9367"
       inkscape:connector-curvature="0" />
    <path
       style="fill:none;fill-rule:evenodd;stroke:#000000;stroke-width:1px;stroke-linecap:butt;stroke-linejoin:miter;stroke-opacity:1"
       d="m -164.29651,136.73223 c -3.47158,1.79091 -7.49435,-0.89545 -11.07617,0 -5.35391,1.33848 -2.16034,1.44023 -5.53808,3.69206 -7.87315,5.24876 0.60049,-2.44653 -7.38411,5.53808 -0.61535,0.61534 -1.57084,1.02046 -1.84603,1.84603 -0.38918,1.16753 0.24136,2.48527 0,3.69206 -0.38162,1.90809 -1.37408,3.6503 -1.84603,5.53808 -0.29849,1.19394 0,2.46137 0,3.69206 0,3.07671 0,6.15342 0,9.23014 0,2.5804 -0.42072,13.08533 0,14.76822 0.21106,0.84425 1.45685,1.06768 1.84603,1.84603 0.27519,0.55038 -0.27519,1.29565 0,1.84603 0.99221,1.98442 2.36086,3.76316 3.69205,5.53808 0.52214,0.69618 1.45686,1.06768 1.84603,1.84603 0.87023,1.74045 0.9758,3.79763 1.84603,5.53809 0.38918,0.77835 1.36331,1.12195 1.84603,1.84602 0.76324,1.14486 1.23068,2.46138 1.84603,3.69206 1.23068,1.23069 2.64778,2.2997 3.69205,3.69206 0.82557,1.10076 1.08279,2.5472 1.84603,3.69205 0.48272,0.72408 1.52284,1.03805 1.84603,1.84603 0.94226,2.35566 0.90376,5.02846 1.84603,7.38411 0.32319,0.80799 1.32389,1.14985 1.84603,1.84603 1.33119,1.77492 2.36086,3.76317 3.69205,5.53809 0.52214,0.69618 1.36332,1.12195 1.84603,1.84603 0.76324,1.14485 1.02046,2.59129 1.84603,3.69205 1.04427,1.39236 2.7966,2.19963 3.69206,3.69206 5.62865,1.30684 0.71139,5.11484 1.84602,7.38411 0.38918,0.77835 1.45685,1.06768 1.84603,1.84603 0.55038,1.10076 -0.68266,2.66806 0,3.69206 0.96543,1.44814 2.9137,2.13534 3.69206,3.69205 0.55038,1.10076 0,2.46137 0,3.69206 0,1.84603 -0.36204,3.7279 0,5.53808 0.26984,1.34923 1.41091,2.38672 1.84603,3.69206 0.39794,1.19384 0,7.21446 0,9.23014 0,2.46137 0,4.92274 0,7.38411 0,0.61535 0,1.23069 0,1.84603 0,0.61534 0.61534,1.84603 0,1.84603 -0.61535,0 0.27519,-2.39641 0,-1.84603 -4.24244,8.48487 0.47855,3.2135 -3.69206,7.38411"
       id="path9369"
       inkscape:connector-curvature="0" />
    <path
       style="fill:none;fill-rule:evenodd;stroke:#000000;stroke-width:1px;stroke-linecap:butt;stroke-linejoin:miter;stroke-opacity:1"
       d="m -228.90749,291.7986 c 0,-9.23014 0,-18.46028 0,-27.69043 0,-4.30739 0,-8.61479 0,-12.92219 0,-1.62757 -0.39324,-3.96514 0,-5.53809 0.47194,-1.88778 1.37408,-3.6503 1.84602,-5.53808 0.14925,-0.59697 -0.27518,-1.29565 0,-1.84603 0.49297,-0.98593 4.56622,-4.56622 5.53809,-5.53808 0.61534,-0.61535 1.23068,-1.23069 1.84603,-1.84603 0.61534,-0.61535 1.06767,-1.45685 1.84603,-1.84603 0.55037,-0.27519 1.29564,0.27519 1.84602,0 0.77836,-0.38918 1.02046,-1.57084 1.84603,-1.84603 1.87095,-0.62365 8.72314,0.47061 11.07617,0 1.9081,-0.38162 3.62999,-1.46441 5.53809,-1.84603 1.20678,-0.24135 2.46137,0 3.69205,0 1.84603,0 3.69206,0 5.53809,0 2.55989,0 12.11165,0.40528 12.92219,0 1.98442,-0.99221 3.55367,-2.69984 5.53809,-3.69205 1.10076,-0.55038 2.49811,0.29848 3.69205,0 1.88779,-0.47195 3.79764,-0.97581 5.53809,-1.84603 0.77835,-0.38918 1.12196,-1.36332 1.84603,-1.84603 1.14486,-0.76324 2.5472,-1.08279 3.69205,-1.84603 2.71638,-1.81092 4.66773,-5.57319 7.38412,-7.38411 2.28971,-1.52648 5.09439,-2.16558 7.38411,-3.69206 1.44814,-0.96543 2.46137,-2.46137 3.69206,-3.69205 1.84602,-1.84603 3.69205,-3.69206 5.53808,-5.53809 1.23069,-1.23068 2.29969,-2.64778 3.69206,-3.69205 4.8,-3.6 1.23014,0.46191 9.23014,-5.53809 1.39236,-1.04427 2.24391,-2.72663 3.69205,-3.69206 1.68633,-1.12421 4.47993,-1.57573 5.53809,-3.69205 0.27519,-0.55038 0,-1.23069 0,-1.84603 0,-0.61534 0,-1.23068 0,-1.84603 0,-1.06367 0.33641,-8.55731 0,-9.23014 -0.77836,-1.55671 -3.14168,-2.04092 -3.69206,-3.69205 0,-8.40365 0.87023,-0.10558 -1.84603,-5.53809 -0.27519,-0.55038 0,-1.23068 0,-1.84603 0,-0.61534 0,-1.23068 0,-1.84603 0,-4.30739 0,-8.61479 0,-12.92219 0,-0.61535 0,-1.23069 0,-1.84603 0,-0.61534 0.27519,-1.29565 0,-1.84603 -0.38917,-0.77835 -1.23068,-1.23068 -1.84602,-1.84603"
       id="path9371"
       inkscape:connector-curvature="0" />
    <path
       style="fill:none;fill-rule:evenodd;stroke:#000000;stroke-width:1px;stroke-linecap:butt;stroke-linejoin:miter;stroke-opacity:1"
       d="m -134.76006,134.8862 c -2.16692,1.08347 -7.33418,2.69415 -9.23014,5.53809 -2.67062,4.00594 -1.84603,6.71386 -1.84603,11.07617 0,4.92274 0,9.84548 0,14.76822 0,7.38411 0,14.76823 0,22.15234 0,1.80727 -0.33828,11.23078 0,12.9222 0.26985,1.34922 1.41092,2.38671 1.84603,3.69205 0.19459,0.58377 -0.34133,1.33404 0,1.84603 0.96543,1.44814 2.9137,2.13535 3.69206,3.69206 0.55038,1.10076 -0.29849,2.49811 0,3.69205 0.33372,1.33487 1.51231,2.35719 1.84603,3.69206 0.44772,1.79091 -0.44773,3.74717 0,5.53808 0.47194,1.88779 1.37408,3.6503 1.84603,5.53809 0.14924,0.59697 -0.27519,1.29565 0,1.84603 0.38917,0.77835 1.63496,1.00178 1.84602,1.84603 0.44773,1.79091 0,3.69205 0,5.53808 0,1.23069 -0.55038,2.5913 0,3.69206 6.01039,12.02077 1.85008,-3.67991 5.53809,7.38411 0.19459,0.58376 0,1.23068 0,1.84603 0,1.84603 -0.44773,3.74717 0,5.53808 0.21106,0.84425 1.45685,1.06768 1.84603,1.84603 0.27519,0.55038 -0.19459,1.26226 0,1.84603 0.43511,1.30534 1.41091,2.38672 1.84602,3.69205 0.19459,0.58377 -0.19458,1.26227 0,1.84603 1.28406,3.85216 4.25404,5.37798 5.53809,9.23014 0.38918,1.16753 -0.55038,2.5913 0,3.69206 0.38918,0.77835 1.45685,1.06767 1.84603,1.84603 2.57028,5.14056 1.23266,6.77075 5.53808,11.07617"
       id="path9373"
       inkscape:connector-curvature="0" />
    <path
       style="fill:none;fill-rule:evenodd;stroke:#000000;stroke-width:1px;stroke-linecap:butt;stroke-linejoin:miter;stroke-opacity:1"
       d="m -81.22524,127.50209 c 1.59835,5.54501 -4.619023,8.32689 -5.538084,12.9222 -0.362036,1.81018 0.362036,3.7279 0,5.53808 -0.269846,1.34923 -1.410915,2.38672 -1.846028,3.69206 -0.194589,0.58376 0.149242,1.24906 0,1.84603 -0.471947,1.88778 -1.464409,3.62998 -1.846029,5.53808 -0.24506,1.2253 0.403814,8.62442 0,9.23014 -0.965429,1.44815 -3.045668,2.07609 -3.692056,3.69206 -0.685598,1.71399 0,3.69205 0,5.53808 0,1.51135 -0.398691,8.03407 0,9.23014 0.435113,1.30534 1.512312,2.35719 1.846028,3.69206 0.298485,1.19394 -0.389177,2.52453 0,3.69206 0.27519,0.82556 1.456852,1.06767 1.846028,1.84602 0.55038,1.10076 -0.389176,2.52453 0,3.69206 0.435114,1.30534 1.512312,2.35719 1.846029,3.69206 0.298485,1.19394 -0.55038,2.59129 0,3.69205 0.778353,1.55671 2.726627,2.24392 3.692056,3.69206 0.341331,0.512 0,1.23068 0,1.84603 0,0.61534 0,1.23068 0,1.84603 0,2.46137 0,4.92274 0,7.38411 0,1.23068 -0.298485,2.49811 0,3.69205 0.471946,1.88779 1.374082,3.6503 1.846028,5.53809 0.149243,0.59697 0,1.23068 0,1.84603 0,1.23068 0,2.46137 0,3.69205 0,4.92275 0,9.84549 0,14.76823 0,2.31728 0.348727,10.37871 0,11.07617 -0.389177,0.77835 -1.570838,1.02046 -1.846028,1.84603 -0.389177,1.16753 0.298485,2.49811 0,3.69205 -0.333716,1.33487 -1.576183,2.34283 -1.846028,3.69206 -0.362036,1.81018 0,3.69206 0,5.53808 0,0.61535 0.275189,1.29565 0,1.84603 -0.389177,0.77836 -1.456851,1.06768 -1.846028,1.84603 -0.27519,0.55038 0,1.23069 0,1.84603 0,1.23068 0,2.46137 0,3.69205 0,2.74766 0.275189,2.35626 -1.846029,5.53809 -1.52076,2.28114 -1.513472,1.84603 -3.692056,1.84603"
       id="path9375"
       inkscape:connector-curvature="0" />
    <path
       style="fill:none;fill-rule:evenodd;stroke:#000000;stroke-width:1px;stroke-linecap:butt;stroke-linejoin:miter;stroke-opacity:1"
       d="m -239.98366,133.04017 c 0,3.69206 0,7.38412 0,11.07617 0,0.61535 0.19459,1.26227 0,1.84603 -0.43512,1.30534 -1.41092,2.38672 -1.84603,3.69206 -0.38622,1.15866 0,5.89799 0,7.38411 0,6.15343 0,12.30686 0,18.46028 0,14.76823 0,29.53645 0,44.30468 0,6.15343 0,12.30685 0,18.46028 0,1.59974 -0.35645,6.31476 0,7.38411 2.10413,6.31239 1.53116,1.37373 5.53808,7.38412 0.34133,0.51199 -0.19458,1.26226 0,1.84602 0.43512,1.30534 1.51232,2.35719 1.84603,3.69206 0.29849,1.19394 -0.38917,2.52453 0,3.69206 0.27519,0.82557 1.45685,1.06767 1.84603,1.84602 0.55038,1.10076 -0.55038,2.5913 0,3.69206 0.38918,0.77835 1.45685,1.06768 1.84603,1.84603 0.27519,0.55038 0,1.23068 0,1.84603 1.23068,1.23068 2.72663,2.24391 3.69205,3.69205 0.34134,0.512 0,1.23069 0,1.84603 0,1.23069 0,2.46137 0,3.69206 0,0.61534 0,1.23068 0,1.84603 0,0.61534 0.27519,1.29565 0,1.84602 -0.38917,0.77836 -1.23068,1.23069 -1.84602,1.84603"
       id="path9377"
       inkscape:connector-curvature="0" />
    <path
       style="fill:none;fill-rule:evenodd;stroke:#000000;stroke-width:1px;stroke-linecap:butt;stroke-linejoin:miter;stroke-opacity:1"
       d="m -195.67899,133.04017 c -2.89574,1.44787 -10.31293,4.77485 -12.92219,7.38412 -0.43512,0.43511 0.27519,1.29565 0,1.84603 -0.38918,0.77835 -1.57084,1.02045 -1.84603,1.84602 -4.22427,12.67282 7.06834,-8.59859 -1.84603,9.23014 -0.38918,0.77836 -1.45685,1.06768 -1.84603,1.84603 -0.27519,0.55038 0,1.23069 0,1.84603 -1.23068,1.84603 -2.69984,3.55366 -3.69205,5.53809 -0.27519,0.55037 0.14924,1.24905 0,1.84602 -0.47195,1.88779 -1.37409,3.6503 -1.84603,5.53809 -0.14925,0.59697 0.19459,1.26226 0,1.84603 -0.43512,1.30533 -1.51231,2.35719 -1.84603,3.69205 -0.29849,1.19394 0,2.46137 0,3.69206 0,3.07671 0,6.15343 0,9.23014 0,9.84548 0,19.69097 0,29.53645 0,6.76877 0,13.53754 0,20.30631 0,1.73309 -0.35259,8.17238 0,9.23014 0.2809,0.84271 4.70671,4.70671 5.53808,5.53809 4.23264,4.23263 -0.77835,-1.16754 3.69206,5.53808 1.06196,1.59294 4.09618,4.09618 5.53808,5.53808 0.61535,0.61535 1.45686,1.06768 1.84603,1.84603 0.27519,0.55038 -0.27519,1.29565 0,1.84603 0.38918,0.77835 1.45685,1.06768 1.84603,1.84603 0.55038,1.10076 -0.55038,2.5913 0,3.69206 1.10762,2.21523 4.43047,3.32285 5.53809,5.53808 2.71625,5.43251 -4.27648,-2.43045 1.84602,3.69206"
       id="path9379"
       inkscape:connector-curvature="0" />
    <path
       style="fill:none;fill-rule:evenodd;stroke:#000000;stroke-width:1px;stroke-linecap:butt;stroke-linejoin:miter;stroke-opacity:1"
       d="m -151.37431,138.57826 c 1.90899,4.76354 -2.92882,7.25997 -3.69206,11.07617 -0.48923,2.44615 0,6.45783 0,9.23014 0,0.61534 0.14925,1.24906 0,1.84603 -0.47194,1.88778 -1.37408,3.6503 -1.84602,5.53808 -0.57724,2.30894 0.75336,5.12402 0,7.38411 -0.27519,0.82557 -1.45686,1.06768 -1.84603,1.84603 -0.58014,1.16027 0.58013,6.22385 0,7.38411 -0.99221,1.98443 -2.99046,3.43329 -3.69206,5.53809 -0.26476,0.79427 0,11.13709 0,12.9222 0,0.61534 0.19459,1.26226 0,1.84602 -0.43511,1.30534 -1.51231,2.3572 -1.84603,3.69206 -0.44773,1.79091 0,3.69206 0,5.53809 0,5.53808 0,11.07616 0,16.61425 0,4.92274 0,9.84548 0,14.76822 0,1.31682 -0.34069,7.86738 0,9.23015 4.66289,18.65155 -0.66659,-1.33318 3.69206,7.38411 0.27519,0.55038 -0.14924,1.24906 0,1.84603 2.04083,8.16334 1.14572,2.86431 3.69206,9.23014 0.72268,1.80671 0.9758,3.79763 1.84602,5.53808 0.77836,1.55671 3.14168,2.04092 3.69206,3.69206 0.38918,1.16753 0,2.46137 0,3.69205 0,2.14448 -0.41838,7.55663 0,9.23015 2.12122,8.48487 1.84603,0.41883 1.84603,5.53808"
       id="path9381"
       inkscape:connector-curvature="0" />
    <path
       style="fill:none;fill-rule:evenodd;stroke:#000000;stroke-width:1px;stroke-linecap:butt;stroke-linejoin:miter;stroke-opacity:1"
       d="m -92.301409,134.8862 c -11.557961,1.57894 1.926328,9.06954 0,12.9222 -0.389177,0.77835 -1.634967,1.00178 -1.846028,1.84603 -2.048748,8.19499 2.352616,2.93217 -1.846028,9.23014 -0.965429,1.44814 -2.647785,2.29969 -3.692056,3.69206 -1.331189,1.77491 -2.360869,3.76316 -3.692059,5.53808 -1.55066,2.06755 -3.98742,3.47053 -5.53808,5.53808 -0.82557,1.10076 -1.23069,2.46138 -1.84603,3.69206 -0.61534,1.23069 -1.41092,2.38672 -1.84603,3.69206 -1.83177,5.49531 4.37116,-3.78769 -1.84603,5.53808 -0.96543,1.44814 -2.9137,2.13535 -3.69205,3.69206 -0.27519,0.55038 0.27519,1.29565 0,1.84603 -0.77836,1.5567 -3.26994,2.00357 -3.69206,3.69205 -0.44773,1.79091 0.36204,3.72791 0,5.53809 1.11265,3.3412 -2.99046,3.43329 -3.69206,5.53808 -0.38917,1.16753 0.29849,2.49812 0,3.69206 -0.33371,1.33486 -1.57618,2.34283 -1.84602,3.69205 -0.36204,1.81018 0,3.69206 0,5.53809 0,3.69205 0,7.38411 0,11.07617 0,3.07671 0,6.15342 0,9.23014 0,0.61534 -0.14925,1.24906 0,1.84603 0.47194,1.88778 1.37408,3.6503 1.84602,5.53808 0.14925,0.59697 -0.27519,1.29565 0,1.84603 0.38918,0.77835 1.45686,1.06767 1.84603,1.84603 0.27519,0.55038 -0.19459,1.26226 0,1.84603 0.43512,1.30533 1.23069,2.46137 1.84603,3.69205 0.61534,1.23069 1.02046,2.5913 1.84603,3.69206 1.56641,2.08854 4.08994,3.36587 5.53808,5.53808 0.76324,1.14486 1.08279,2.5472 1.84603,3.69206 1.44815,2.17221 3.97168,3.44954 5.53809,5.53808 6.70561,8.94082 -1.95425,-0.10822 3.69205,5.53809"
       id="path9383"
       inkscape:connector-curvature="0" />
    <path
       style="fill:none;fill-rule:evenodd;stroke:#000000;stroke-width:1px;stroke-linecap:butt;stroke-linejoin:miter;stroke-opacity:1"
       d="m -160.60445,144.11634 c -3.92059,9.80148 -3.69206,5.91642 -3.69206,11.07617 0,1.23069 0.24136,2.48527 0,3.69206 -0.38162,1.9081 -1.37408,3.6503 -1.84603,5.53808 -0.14924,0.59697 0,1.23069 0,1.84603 0,2.46137 0,4.92274 0,7.38411 0,1.23069 0.24136,2.48527 0,3.69206 -0.49757,2.48785 -1.48722,4.87249 -1.84602,7.38411 -0.43512,3.04579 0,6.15343 0,9.23014 0,6.15343 0,12.30686 0,18.46029 0,4.92274 0,9.84548 0,14.76822 0,1.54585 -0.35096,7.8263 0,9.23014 1.26247,5.04991 2.59577,2.97065 5.53808,7.38411 0.34133,0.512 -0.27519,1.29565 0,1.84603 0.38918,0.77836 1.45685,1.06768 1.84603,1.84603 0.27519,0.55038 0,1.23069 0,1.84603 0,1.84603 0,3.69206 0,5.53808 0,2.20714 0.40161,9.87134 0,11.07617 -0.87023,2.61068 -2.82183,4.77344 -3.69206,7.38412 -0.19459,0.58376 0.27519,1.29564 0,1.84602 -0.38917,0.77836 -1.45685,1.06768 -1.84603,1.84603 -0.27519,0.55038 0.27519,1.29565 0,1.84603 -2.28114,4.56228 -1.84602,-0.63721 -1.84602,3.69206"
       id="path9385"
       inkscape:connector-curvature="0" />
    <path
       style="fill:none;fill-rule:evenodd;stroke:#000000;stroke-width:1px;stroke-linecap:butt;stroke-linejoin:miter;stroke-opacity:1"
       d="m -190.1409,147.8084 c -3.96725,7.93449 -3.69206,4.63222 -3.69206,9.23014 0,1.23069 0.29849,2.49812 0,3.69206 -0.33371,1.33486 -1.41091,2.38671 -1.84603,3.69205 -0.19458,0.58377 0.34133,1.33404 0,1.84603 -0.96543,1.44815 -2.72662,2.24391 -3.69205,3.69206 -0.34133,0.51199 0,1.23068 0,1.84603 0,1.23068 0.24135,2.48527 0,3.69205 -0.38162,1.9081 -1.37408,3.6503 -1.84603,5.53809 -0.14924,0.59697 0.27519,1.29565 0,1.84602 -0.38918,0.77836 -1.57084,1.02046 -1.84603,1.84603 -0.38918,1.16753 0,2.46137 0,3.69206 0,1.23068 0,2.46137 0,3.69206 0,4.30739 0,8.61479 0,12.92219 0,3.69206 0,7.38412 0,11.07617 0,0.61534 0,1.23069 0,1.84603 0,0.61534 -0.34133,1.33403 0,1.84603 0.96543,1.44814 2.64779,2.29969 3.69206,3.69205 0.82557,1.10076 1.08279,2.5472 1.84603,3.69206 0.48271,0.72407 1.45685,1.06768 1.84602,1.84603 0.27519,0.55038 0,1.23068 0,1.84603 0.61535,1.84603 0.84488,3.8695 1.84603,5.53808 0.89546,1.49243 2.7966,2.19963 3.69206,3.69206 2.04061,3.40103 1.84603,4.4526 1.84603,7.38411 0,0.61534 -0.14925,1.24906 0,1.84603 2.2352,8.94082 1.84602,2.17853 1.84602,9.23014 0,1.51134 -0.39869,8.03407 0,9.23014 0.43512,1.30534 1.41092,2.38672 1.84603,3.69206 0.38918,1.16753 0,2.46137 0,3.69205 0,3.07672 0,6.15343 0,9.23014"
       id="path9387"
       inkscape:connector-curvature="0" />
    <path
       style="fill:none;fill-rule:evenodd;stroke:#000000;stroke-width:1px;stroke-linecap:butt;stroke-linejoin:miter;stroke-opacity:1"
       d="m -68.303042,138.57826 c -12.187579,-0.29755 -1.853935,6.47296 -3.692057,9.23014 -0.965429,1.44814 -2.726627,2.24391 -3.692056,3.69206 -0.341331,0.51199 0.194588,1.26226 0,1.84602 -0.435113,1.30534 -1.410915,2.38672 -1.846028,3.69206 -0.583766,1.7513 0.362036,3.72791 0,5.53809 -0.38162,1.90809 -1.374082,3.65029 -1.846028,5.53808 -0.298486,1.19394 0,2.46137 0,3.69206 0,2.46137 0,4.92274 0,7.38411 0,0.61534 0.194588,1.26226 0,1.84603 -0.435113,1.30534 -1.410916,2.38671 -1.846029,3.69205 -0.347175,1.04153 0,4.32505 0,5.53809 0,5.53808 0,11.07617 0,16.61425 0,5.53809 0,11.07617 0,16.61425 0,1.2127 0.217048,6.95002 0,7.38412 -0.778353,1.55671 -2.726627,2.24391 -3.692056,3.69205 -0.510303,0.76546 0.517765,6.34859 0,7.38412 -0.389177,0.77835 -1.456851,1.06767 -1.846028,1.84602 -0.523155,1.04631 0.452715,7.41929 0,9.23015 -0.471946,1.88778 -1.374082,3.65029 -1.846028,5.53808 -0.393237,1.57295 0,3.91052 0,5.53808 0,3.07672 0,6.15343 0,9.23015 0,1.23068 0,2.46137 0,3.69205 0,0.61534 0.615342,1.84603 0,1.84603 -0.615343,0 0,-1.23069 0,-1.84603"
       id="path9389"
       inkscape:connector-curvature="0" />
    <path
       style="fill:none;fill-rule:evenodd;stroke:#000000;stroke-width:3.9871006;stroke-linecap:butt;stroke-linejoin:miter;stroke-miterlimit:4;stroke-dasharray:none;stroke-opacity:1"
       d="m -446.40254,613.67072 c 352.579339,-1.32643 353.76848,-1.32643 353.76848,-1.32643"
       id="path6350-2"
       inkscape:connector-curvature="0" />
    <path
       style="fill:none;fill-opacity:1;fill-rule:evenodd;stroke:#1a0ed4;stroke-width:5.891;stroke-linecap:butt;stroke-linejoin:miter;stroke-miterlimit:4;stroke-dasharray:none;stroke-opacity:1;marker-start:url(#Arrow1Mstart)"
       d="M -262.9305,613.30773 C -68.949266,551.9119 -68.949266,551.9119 -68.949266,551.9119 l -0.584708,0.49068"
       id="path4208-5-9-7-8"
       inkscape:connector-curvature="0" />
  </g>
</svg>
